<svg width="1440" height="274" xmlns="http://www.w3.org/2000/svg">  <defs>    <linearGradient x1="100%" y1="66.96%" x2="0%" y2="31.042%" id="a">      <stop stop-color="#55FBDC" offset="0%"/>      <stop stop-color="#00C7FA" stop-opacity=".8" offset="100%"/>    </linearGradient>    <linearGradient x1="119.07%" y1="33.883%" x2="0%" y2="60.48%" id="b">      <stop stop-color="#00C7FA" offset="0%"/>      <stop stop-color="#00C7FA" stop-opacity=".24" offset="100%"/>    </linearGradient>    <linearGradient x1="50%" y1="0%" x2="50%" y2="100%" id="c">      <stop stop-color="#08F" offset="0%"/>      <stop stop-color="#00C7FA" offset="100%"/>    </linearGradient>    <linearGradient x1="85.265%" y1="28.615%" x2="25.986%" y2="82.178%" id="d">      <stop stop-color="#F5F6F7" offset="0%"/>      <stop stop-color="#F5F6F7" stop-opacity="0" offset="100%"/>    </linearGradient>  </defs>  <g fill="none" fill-rule="evenodd">    <path d="M1416.831 523.85c.37-.12.74-.229 1.109-.348-.367.124-.738.237-1.109.347zm-7.408-451.153c23.255-14.075 49.502 18.88 70.391 33.48.233.162.46.33.692.491 1.058.746 2.119 1.488 3.163 2.25a234.612 234.612 0 0 1 14.963 11.74c11.682 9.95-140.242 34.87 32.472 33.644 172.713-1.226-79.025 51.69-72.188 65.045 6.822 13.364 109.503 1.092 113.746 15.736 4.368 15.21 6.737 29.613 7.93 42.897.149 1.66.346 3.296.45 4.92l.235 4.825c.14 3.177.378 6.275.319 9.3l.014 5.033c-.014 1.672.06 3.34-.056 4.997l-.464 9.876c-.98 13.099-3.011 25.696-5.762 37.66-.795 3.123-1.54 6.05-2.25 8.846-.323 1.408-.801 2.737-1.191 4.066l-1.201 3.907c-1.464 5.178-3.368 9.938-5.156 15.063-.421 1.27-.981 2.486-1.484 3.727l-1.545 3.718c-1.036 2.481-2.025 4.993-3.24 7.412l-3.498 7.344c-1.221 2.429-2.568 4.799-3.854 7.207l-1.938 3.57c-.679 1.182-1.416 2.341-2.128 3.52-1.443 2.346-2.874 4.72-4.344 7.046l-4.626 6.72c-.774 1.09-1.482 2.21-2.288 3.236l-2.35 3.052c-12.242 15.949-23.264 26.364-31.82 33.962l-3.049 2.678c-.98.87-1.932 1.715-2.908 2.468l-5.404 4.347-2.44 1.962-2.347 1.723c-1.507 1.108-40.731-145.873-42.016-144.928-10.644 7.636 15.411 162.87 2.416 169.121l-4.906 2.306c-.828.374-1.638.795-2.486 1.133l-2.535 1.04-4.502 1.842c-1.496.6-2.96 1.253-4.471 1.752l-8.71 3.084c-2.889.94-5.772 1.756-8.593 2.62-11.356 3.204-22.218 5.617-32.44 6.935-1.276.185-2.538.37-3.787.55-1.247.208-2.5.264-3.73.4l-7.242.685c-.59.05-1.177.122-1.762.153l-1.749.077-3.439.15c-2.266.089-4.478.208-6.637.26-4.315-.049-8.408-.021-12.262-.14l-10.835-.645c-6.71-.748-12.455-1.292-17.068-2.19l-6.136-1.052c-1.768-.334-3.242-.726-4.442-1-2.396-.575-3.652-.924-3.687-1.027-.035-.104 1.153.043 3.469.422l4.312.73 5.99.776 3.587.48 1.938.262c.664.076 1.349.121 2.046.185l9.12.797c3.29.213 6.834.292 10.6.465 1.883.118 3.828.06 5.828.05l6.167-.047 1.595-.01 1.613-.085 3.285-.184 6.806-.384 7.088-.75c1.206-.129 2.425-.258 3.656-.388 1.232-.12 2.461-.363 3.711-.542l7.63-1.187c2.582-.456 5.189-1.045 7.852-1.574 1.33-.274 2.673-.548 4.026-.826l4.05-1.031c1.36-.347 2.73-.698 4.113-1.05 1.378-.369 2.787-.667 4.164-1.124l3.28-1.005c-41.522 12.184-86.905 13.131-131.613.311-125.375-35.95-314.415-391.08-162.08-291.537s166.403-85.363 291.942-161.348z" fill="url(#a)"/>    <path d="M1340.155 56.189c.144.81.228 1.637.224 2.487-.027.846-.163 1.709-.464 2.52-.037.106-.377-.034-.348-.136.249-.79.455-1.588.544-2.405.068-.815.037-1.643-.199-2.412-.37-1.2-1.167-2.116-1.984-2.878 1.422 2.067 1.782 4.839.703 7.38-1.652 3.892-6.036 5.754-9.794 4.159-3.757-1.595-5.464-6.042-3.812-9.934a7.839 7.839 0 0 1 2.248-3.01 4.833 4.833 0 0 0-1.464 1.065c-1.037 1.133-1.759 2.576-2.143 4.162-.365 1.62-.067 3.29.414 4.92.252.825.73 1.56 1.293 2.21.582.637 1.249 1.18 1.939 1.718.08.061-.062.324-.152.264-.745-.493-1.5-.968-2.204-1.559-.684-.601-1.317-1.307-1.724-2.15-.794-1.665-1.385-3.563-1.103-5.498.3-1.911 1.13-3.687 2.351-5.098a10.002 10.002 0 0 1 4.48-2.993c1.664-.57 3.494-.72 5.181-.262 1.702.437 3.083 1.586 4.208 2.826 1.154 1.289 1.525 3.04 1.806 4.624zm-10.86 11.496c.688.075 1.322.42 2.05.73.716.295 1.53.53 2.296.342.644-.158 1.244-.631 1.789-1.07.552-.445 1.053-.845 1.735-.936.22-.038.833 1.295.603 1.391-1.498.598-2.93.907-4.39 1.05-1.53.143-2.907-.447-4.256-.716-.03-.007.146-.793.173-.79zm.477 7.173c-3.451-.436-6.509-2.174-8.906-4.555-2.4-2.344-4.344-5.336-4.895-8.759-.56-3.42.339-6.93 1.75-9.857.718-1.47 1.62-2.854 2.71-4.066a16.068 16.068 0 0 1 3.719-3.026c2.742-1.573 5.847-1.977 8.76-1.814 1.472.059 2.912.445 4.229 1.007 1.324.55 2.537 1.311 3.674 2.175 1.157.869 2.294 1.81 3.277 2.943.98 1.125 1.83 2.441 2.257 3.929.891 2.964.747 6.21-.101 9.214-.027.083-.485-.053-.46-.132.637-2.154 1.425-4.555.947-6.883-.476-2.315-1.856-4.198-3.198-5.864-1.38-1.718-3.442-2.576-5.228-3.399-2.39-1.137-5.143-1.622-7.797-1.199-1.323.2-2.677.365-4.04.774-1.353.4-2.727 1.025-3.84 2.026-1.105 1.003-2.02 2.224-2.748 3.535-.713 1.317-1.24 2.717-1.654 4.185-.404 1.47-.433 3.034-.254 4.535.173 1.512.588 2.955 1.057 4.388.466 1.421 1.03 2.868 1.88 4.194.839 1.32 1.933 2.554 3.301 3.377 2.702 1.666 5.998 2.292 9.212 2.023 2.965-.258 5.84-1.433 8.216-3.349 1.016-.829 1.787-2.011 2.42-3.182.665-1.166 1.186-2.309 2.059-3.282.284-.318 1.162.317.898.69-.983 1.422-1.974 2.82-3.08 4.145-1.102 1.325-2.37 2.548-3.812 3.46-1.523.97-3.155 1.779-4.91 2.29-1.748.503-3.614.704-5.443.477z" fill="#55FBDC"/>    <path d="M1260.823 43.365c-1.116-7.334-3.098-15.81-6.31-24.25a249.293 249.293 0 0 0-1.576-4.115c15.477 23.548 27.051 49.636 34.151 76.882.03.97.093 2.118.163 3.458.089 1.282.364 4.196.74 8.228l.144 1.563.077 1.676.165 3.627c.09 2.536.285 5.27.293 8.184.103 7.203-.207 15.357-.948 23.778-1.998-34.06-10.936-67.834-26.9-99.03z" fill="url(#b)"/>    <path d="M1292.843 176.589c1.915 1.664 4.049 3.385 6.186 5.367 5.337 4.837 11.089 10.625 16.742 16.91-26.272-21.768-57.068-38.265-90.771-47.866" fill="url(#c)"/>    <path d="M182.76 187.395c38.277 42.417 80.925-.472 145.566 8.203 42.146-37.948 25.078-141.965-20.746-116.02-45.824 25.944-75.618-75.759-117.764-37.81-42.146 37.948-45.305 103.148-7.057 145.627zm-11.941 10.804c-43.83-48.679-40.1-123.49 8.33-167.097C227.579-12.505 302.37-8.394 346.2 40.284c43.757 48.704 91.345 141.565 42.984 185.205-48.43 43.608-174.537 21.387-218.366-27.29z" fill="url(#d)"/>  </g></svg>