<?xml version="1.0" encoding="utf-8"?>
<svg id="master-artboard" viewBox="0 0 277.18072509765625 300.44061279296875" version="1.1" xmlns="http://www.w3.org/2000/svg" x="0px" y="0px" width="277.18072509765625px" height="300.44061279296875px" enable-background="new 0 0 1400 1400" xmlns:xlink="http://www.w3.org/1999/xlink"><rect id="ee-background" x="0" y="0" width="277.18072509765625" height="300.44061279296875" style="fill: white; fill-opacity: 0; pointer-events: none;"/><defs><linearGradient id="98b21c62-7d99-43a8-afc3-391cbfa317a4" x1="158.36" y1="837.36" x2="158.36" y2="581.62" gradientUnits="userSpaceOnUse"><stop offset="0" stop-color="gray" stop-opacity="0.25"/><stop offset="0.54" stop-color="gray" stop-opacity="0.12"/><stop offset="1" stop-color="gray" stop-opacity="0.1"/></linearGradient><linearGradient id="cac3e8da-e13c-4a6e-8683-059d4d6396e6" x1="-1003.13" y1="469.49" x2="-1003.13" y2="167.61" gradientTransform="matrix(-1, 0, 0, 1, -573.82, 0)" xlink:href="#98b21c62-7d99-43a8-afc3-391cbfa317a4"/><linearGradient id="3d39174d-c81e-4005-9f1d-e2bf56b40b54" x1="980.32" y1="824.83" x2="980.32" y2="557.01" xlink:href="#98b21c62-7d99-43a8-afc3-391cbfa317a4"/></defs>




<path d="M 590.5999755859375 436.20001220703125 L 625.2000122070312 398.29998779296875 L 632.0999755859375 434.8999938964844 Z" id="XMLID_20_" fill-rule="evenodd" clip-rule="evenodd" fill="#31AE6F" transform="matrix(0.9449576735496522, 0, 0, 0.9449576735496522, -514.3282151876193, -371.75659665561886)"/><path d="M 625.2000122070312 398.29998779296875 L 641.2999877929688 484.5 L 681.5999755859375 438.6000061035156 Z" id="XMLID_19_" fill-rule="evenodd" clip-rule="evenodd" fill="#6BCE98" transform="matrix(0.9449576735496522, 0, 0, 0.9449576735496522, -514.3282151876193, -371.75659665561886)"/><path d="M 627.9000244140625 536.7000122070312 L 757.5 567.5999755859375 L 698.2000122070312 598.5 L 595.7000122070312 623.2999877929688 L 628.2999877929688 582.9000244140625 L 575.7000122070312 588.5 Z" id="XMLID_18_" fill-rule="evenodd" clip-rule="evenodd" fill="#31AE6F" transform="matrix(0.9449576735496522, 0, 0, 0.9449576735496522, -514.3282151876193, -371.75659665561886)"/><path d="M 681.5999755859375 438.6000061035156 L 602 529.2000122070312 L 762.5999755859375 501.6000061035156 L 635.7000122070312 598 L 757.5 567.5999755859375 Z" id="XMLID_17_" fill-rule="evenodd" clip-rule="evenodd" fill="#31AE6F" transform="matrix(0.9449576735496522, 0, 0, 0.9449576735496522, -514.3282151876193, -371.75659665561886)"/><path d="M 689.0999755859375 584.7000122070312 L 746.0999755859375 663.9000244140625 L 757.5 567.5999755859375 Z" id="XMLID_16_" fill-rule="evenodd" clip-rule="evenodd" fill="#6BCE98" transform="matrix(0.9449576735496522, 0, 0, 0.9449576735496522, -514.3282151876193, -371.75659665561886)"/><path d="M 752.7000122070312 608.0999755859375 L 806.2000122070312 673.2999877929688 L 746.0999755859375 663.9000244140625 Z" id="XMLID_15_" fill-rule="evenodd" clip-rule="evenodd" fill="#31AE6F" transform="matrix(0.9449576735496522, 0, 0, 0.9449576735496522, -514.3282151876193, -371.75659665561886)"/><path d="M 769.2999877929688 667.5 L 800.5 708.7000122070312 L 806 673.2000122070312 Z" id="XMLID_14_" fill-rule="evenodd" clip-rule="evenodd" fill="#6BCE98" transform="matrix(0.9449576735496522, 0, 0, 0.9449576735496522, -514.3282151876193, -371.75659665561886)"/><path d="M 602 529.2000122070312 L 635.7000122070312 598 L 762.5999755859375 501.6000061035156 Z" id="XMLID_13_" fill-rule="evenodd" clip-rule="evenodd" fill="#6BCE98" transform="matrix(0.9449576735496522, 0, 0, 0.9449576735496522, -514.3282151876193, -371.75659665561886)"/><path d="M 575.7000122070312 588.5 L 595.7000122070312 623.2999877929688 L 628.2999877929688 582.9000244140625 Z" id="XMLID_12_" fill-rule="evenodd" clip-rule="evenodd" fill="#6BCE98" transform="matrix(0.9449576735496522, 0, 0, 0.9449576735496522, -514.3282151876193, -371.75659665561886)"/></svg>