<?xml version="1.0" encoding="utf-8"?>
<svg id="master-artboard" viewBox="0 0 277.18072509765625 300.44061279296875" version="1.1" xmlns="http://www.w3.org/2000/svg" x="0px" y="0px" width="277.18072509765625px" height="300.44061279296875px" enable-background="new 0 0 1400 1400" xmlns:xlink="http://www.w3.org/1999/xlink"><rect id="ee-background" x="0" y="0" width="277.18072509765625" height="300.44061279296875" style="fill: white; fill-opacity: 0; pointer-events: none;"/><defs><linearGradient id="98b21c62-7d99-43a8-afc3-391cbfa317a4" x1="158.36" y1="837.36" x2="158.36" y2="581.62" gradientUnits="userSpaceOnUse"><stop offset="0" stop-color="gray" stop-opacity="0.25"/><stop offset="0.54" stop-color="gray" stop-opacity="0.12"/><stop offset="1" stop-color="gray" stop-opacity="0.1"/></linearGradient><linearGradient id="cac3e8da-e13c-4a6e-8683-059d4d6396e6" x1="-1003.13" y1="469.49" x2="-1003.13" y2="167.61" gradientTransform="matrix(-1, 0, 0, 1, -573.82, 0)" xlink:href="#98b21c62-7d99-43a8-afc3-391cbfa317a4"/><linearGradient id="3d39174d-c81e-4005-9f1d-e2bf56b40b54" x1="980.32" y1="824.83" x2="980.32" y2="557.01" xlink:href="#98b21c62-7d99-43a8-afc3-391cbfa317a4"/></defs>




<g transform="matrix(1, 0, 0, 1, -145.903076171875, -386.9603271484375)"><path d="M 332.5 515.9000244140625 L 360.5 569 L 418.3999938964844 676.7999877929688 L 366.8999938964844 666 L 363.79998779296875 619.2999877929688 L 240.89999389648438 579.2999877929688 L 204.60000610351562 496.3999938964844 L 146.60000610351562 496.3999938964844 L 189.89999389648438 462.79998779296875 L 268.20001220703125 493.3999938964844 L 288 431.6000061035156 L 362.8999938964844 387.6000061035156 L 346.5 449.5 L 401 428.29998779296875 Z" id="XMLID_54_" fill-rule="evenodd" clip-rule="evenodd" fill="#00A0E8" transform="matrix(1, 0, 0, 1, 1.1368683772161603e-13, 0)"/><path d="M 189.89999389648438 462.79998779296875 L 204.60000610351562 496.3999938964844 L 146.60000610351562 496.3999938964844 Z" id="XMLID_53_" fill-rule="evenodd" clip-rule="evenodd" fill="#1383C7" transform="matrix(1, 0, 0, 1, 1.1368683772161603e-13, 0)"/><path d="M 189.89999389648438 462.79998779296875 L 240.89999389648438 579.2999877929688 L 268.20001220703125 493.3999938964844 Z" id="XMLID_52_" fill-rule="evenodd" clip-rule="evenodd" fill="#40ABE9" transform="matrix(1, 0, 0, 1, 1.1368683772161603e-13, 0)"/><path d="M 240.89999389648438 579.2999877929688 L 288 431.6000061035156 L 416.6000061035156 675.0999755859375 L 363.79998779296875 619.2999877929688 Z" id="XMLID_51_" fill-rule="evenodd" clip-rule="evenodd" fill="#1383C7" transform="matrix(1, 0, 0, 1, 1.1368683772161603e-13, 0)"/><path d="M 360.5 569 L 366.8999938964844 666 L 418.3999938964844 676.7999877929688 Z" id="XMLID_50_" fill-rule="evenodd" clip-rule="evenodd" fill="#40ABE9" transform="matrix(1, 0, 0, 1, 1.1368683772161603e-13, 0)"/><path d="M 288 431.6000061035156 L 362.8999938964844 387.6000061035156 L 330.1000061035156 511.3999938964844 Z" id="XMLID_49_" fill-rule="evenodd" clip-rule="evenodd" fill="#40ABE9" transform="matrix(1, 0, 0, 1, 1.1368683772161603e-13, 0)"/><path d="M 346.5 449.5 L 401 428.29998779296875 L 332.70001220703125 516.2999877929688 L 330.1000061035156 511.3999938964844 Z" id="XMLID_48_" fill-rule="evenodd" clip-rule="evenodd" fill="#1383C7" transform="matrix(1, 0, 0, 1, 1.1368683772161603e-13, 0)"/></g></svg>